<svg width="23" height="308" viewBox="0 0 23 308" fill="none" xmlns="http://www.w3.org/2000/svg">
<path d="M21.3597 2.69549C21.3584 2.69549 21.357 2.69531 21.3557 2.69531H15.5119V2.02148C15.5119 0.90686 14.6445 0 13.5783 0H8.42212C7.35592 0 6.48852 0.90686 6.48852 2.02148V2.69531H0.644774C0.285924 2.69531 0.000244141 3.00274 0.000244141 3.36914V18.1933C0.000244141 19.308 0.867674 20.2148 1.93384 20.2148H20.0666C21.1328 20.2148 22.0002 19.308 22.0002 18.1933V3.38335C22.0002 3.38247 22.0002 3.3816 22.0002 3.38072C21.9755 2.93817 21.7152 2.69794 21.3597 2.69549ZM7.77762 2.02148C7.77762 1.65 8.06682 1.34765 8.42212 1.34765H13.5783C13.9337 1.34765 14.2229 1.65 14.2229 2.02148V2.69531H7.77762V2.02148ZM20.4614 4.04297L18.4598 10.3204C18.372 10.5961 18.1263 10.7812 17.8485 10.7812H14.2229V10.1074C14.2229 9.73522 13.9343 9.43362 13.5783 9.43362H8.42212C8.06612 9.43362 7.77762 9.73522 7.77762 10.1074V10.7812H4.15193C3.87414 10.7812 3.62842 10.5961 3.54063 10.3204L1.53906 4.04297H20.4614ZM12.9338 10.7812V12.1289H9.06662V10.7812H12.9338ZM20.7112 18.1933C20.7112 18.5648 20.422 18.8672 20.0666 18.8672H1.93384C1.5785 18.8672 1.2893 18.5648 1.2893 18.1933V7.52142L2.3177 10.7467C2.58122 11.5735 3.3184 12.1289 4.15193 12.1289H7.77762V12.8027C7.77762 13.1749 8.06612 13.4765 8.42212 13.4765H13.5783C13.9343 13.4765 14.2229 13.1749 14.2229 12.8027V12.1289H17.8485C18.6821 12.1289 19.4192 11.5735 19.6828 10.7467L20.7112 7.52142V18.1933Z" fill="#B5B5B5"/>
<path d="M12.3372 107.607C13.0086 107.607 13.6524 107.864 14.1271 108.321C14.6018 108.778 14.8685 109.398 14.8685 110.045L14.8668 111.26C15.0406 114.245 12.6528 115.734 8.22652 115.734C3.81537 115.732 1.37524 114.265 1.37524 111.304V110.045C1.37524 109.398 1.64193 108.778 2.11663 108.321C2.59133 107.864 3.23516 107.607 3.90649 107.607H12.3372ZM19.0872 107.607C19.7586 107.607 20.4024 107.864 20.8771 108.321C21.3518 108.778 21.6185 109.398 21.6185 110.045V110.901C21.7703 113.577 19.661 114.919 15.8067 114.919C15.2836 114.919 14.7908 114.895 14.3318 114.846C14.8212 114.411 15.1874 113.892 15.4203 113.29L15.8067 113.295C18.8172 113.295 20.0204 112.529 19.931 110.945V110.045C19.931 109.829 19.8421 109.622 19.6838 109.47C19.5256 109.318 19.311 109.232 19.0872 109.232H15.6059C15.4366 108.603 15.0751 108.036 14.5681 107.607H19.0872ZM12.3372 109.232H3.90649C3.68272 109.232 3.4681 109.318 3.30987 109.47C3.15164 109.622 3.06274 109.829 3.06274 110.045V111.304C3.06274 113.164 4.62874 114.107 8.22652 114.107C11.8107 114.107 13.289 113.186 13.181 111.304V110.045C13.181 109.829 13.0921 109.622 12.9338 109.47C12.7756 109.318 12.561 109.232 12.3372 109.232ZM8.12522 97.8574C9.24412 97.8574 10.3172 98.2854 11.1083 99.0474C11.8995 99.8094 12.344 100.842 12.344 101.919C12.344 102.997 11.8995 104.03 11.1083 104.792C10.3172 105.554 9.24412 105.982 8.12522 105.982C7.00632 105.982 5.9333 105.554 5.14214 104.792C4.35097 104.03 3.90649 102.997 3.90649 101.919C3.90649 100.842 4.35097 99.8094 5.14214 99.0474C5.9333 98.2854 7.00632 97.8574 8.12522 97.8574ZM16.5627 99.4824C17.4578 99.4824 18.3163 99.8244 18.9492 100.434C19.5821 101.043 19.9377 101.87 19.9377 102.732C19.9377 103.594 19.5821 104.421 18.9492 105.03C18.3163 105.64 17.4578 105.982 16.5627 105.982C15.6676 105.982 14.8092 105.64 14.1762 105.03C13.5433 104.421 13.1877 103.594 13.1877 102.732C13.1877 101.87 13.5433 101.043 14.1762 100.434C14.8092 99.8244 15.6676 99.4824 16.5627 99.4824ZM8.12522 99.4824C7.45392 99.4824 6.81008 99.7394 6.33538 100.196C5.86068 100.653 5.59399 101.273 5.59399 101.919C5.59399 102.566 5.86068 103.186 6.33538 103.643C6.81008 104.1 7.45392 104.357 8.12522 104.357C8.79662 104.357 9.44042 104.1 9.91512 103.643C10.3898 103.186 10.6565 102.566 10.6565 101.919C10.6565 101.273 10.3898 100.653 9.91512 100.196C9.44042 99.7394 8.79662 99.4824 8.12522 99.4824ZM16.5627 101.107C16.1152 101.107 15.6859 101.278 15.3695 101.583C15.053 101.888 14.8752 102.301 14.8752 102.732C14.8752 103.163 15.053 103.576 15.3695 103.881C15.6859 104.186 16.1152 104.357 16.5627 104.357C17.0103 104.357 17.4395 104.186 17.756 103.881C18.0724 103.576 18.2502 103.163 18.2502 102.732C18.2502 102.301 18.0724 101.888 17.756 101.583C17.4395 101.278 17.0103 101.107 16.5627 101.107Z" fill="#B5B5B5"/>
<path d="M0.644581 64.5195H3.86723V66.541C3.86723 66.9131 4.15581 67.2148 4.51176 67.2148H21.3555C21.7114 67.2148 22 66.9131 22 66.541V49.0215C22 48.6493 21.7114 48.3476 21.3555 48.3476H18.1328V47.6738C18.1328 47.3017 17.8442 47 17.4883 47C17.1323 47 16.8437 47.3017 16.8437 47.6738V48.3476H13.5781V47.6738C13.5781 47.3017 13.2896 47 12.9336 47C12.5776 47 12.2891 47.3017 12.2891 47.6738V48.3476H9.06642V47.6738C9.06642 47.3017 8.77782 47 8.42192 47C8.06592 47 7.77742 47.3017 7.77742 47.6738V48.3476H4.51176C4.15581 48.3476 3.86723 48.6493 3.86723 49.0215V53.0644C3.86723 58.0305 1.89304 61.8509 0.231951 63.328C0.0234711 63.5096 -0.0538288 63.8083 0.0385112 64.0751C0.130931 64.3418 0.373191 64.5195 0.644581 64.5195ZM20.7109 65.8671H5.15629V64.5195H17.4883C17.6391 64.5195 17.7851 64.4642 17.9009 64.3633C18.6757 63.6886 19.8759 62.0823 20.7109 60.025V65.8671ZM5.15629 49.6953H7.77742V50.3691C7.77742 50.7412 8.06592 51.0429 8.42192 51.0429C8.77782 51.0429 9.06642 50.7412 9.06642 50.3691V49.6953H12.2891V50.3691C12.2891 50.7412 12.5776 51.0429 12.9336 51.0429C13.2896 51.0429 13.5781 50.7412 13.5781 50.3691V49.6953H16.8437V50.3691C16.8437 50.7412 17.1323 51.0429 17.4883 51.0429C17.8442 51.0429 18.1328 50.7412 18.1328 50.3691V49.6953H20.7109V52.3906H5.15629V49.6953ZM5.14525 53.7378H20.6995C20.5543 58.0123 18.985 61.3755 17.2355 63.1718H2.11063C4.0929 60.5313 5.0389 57.0931 5.14525 53.7378Z" fill="#B5B5B5"/>
<path d="M10.932 117.607V121.515H16.014L13.4357 123.981C12.0504 123.166 10.4696 122.737 8.82993 122.737C3.96747 122.737 0.0115967 126.521 0.0115967 131.172C0.0115967 135.823 3.96747 139.607 8.82993 139.607C13.6924 139.607 17.6483 135.823 17.6483 131.172C17.6483 129.592 17.1944 128.071 16.3303 126.74L18.9031 124.279V129.14H22.9889V117.607H10.932ZM21.6492 127.858H20.2427L20.2426 121.185L14.5943 126.588L14.9234 127.029C15.8296 128.245 16.3086 129.678 16.3086 131.172C16.3086 135.117 12.9537 138.326 8.82993 138.326C4.70612 138.326 1.35117 135.117 1.35117 131.172C1.35117 127.228 4.70612 124.018 8.82993 124.018C10.3812 124.018 11.8704 124.471 13.1363 125.327L13.5974 125.639L19.2481 120.234H12.2716L12.2717 118.888H21.6492V127.858Z" fill="#B5B5B5"/>
<path d="M8.82992 125.65C5.64652 125.65 3.05664 128.127 3.05664 131.172C3.05664 134.217 5.64652 136.694 8.82992 136.694C12.0133 136.694 14.6032 134.217 14.6032 131.172C14.6032 128.127 12.0133 125.65 8.82992 125.65ZM8.82992 135.413C6.38517 135.413 4.39625 133.51 4.39625 131.172C4.39625 128.834 6.38517 126.931 8.82992 126.931C11.2746 126.931 13.2636 128.833 13.2636 131.172C13.2635 133.51 11.2746 135.413 8.82992 135.413Z" fill="#B5B5B5"/>
<path d="M21.3702 168.841C20.2834 167.78 18.7819 167.25 16.865 167.25C16.3346 167.25 15.7932 167.342 15.2414 167.526C14.6894 167.71 14.1759 167.958 13.7014 168.27C13.2263 168.582 12.8181 168.876 12.4756 169.149C12.1335 169.423 11.8082 169.714 11.5002 170.022C11.1921 169.714 10.8669 169.423 10.5248 169.149C10.1824 168.876 9.77402 168.583 9.29902 168.27C8.82412 167.958 8.31062 167.71 7.75882 167.526C7.20702 167.342 6.66568 167.25 6.13521 167.25C4.21848 167.25 2.7169 167.78 1.63025 168.841C0.543614 169.902 0.000244141 171.374 0.000244141 173.256C0.000244141 173.83 0.100944 174.42 0.301934 175.028C0.502934 175.635 0.731974 176.153 0.988624 176.581C1.24522 177.008 1.53621 177.425 1.86137 177.832C2.18652 178.238 2.42415 178.518 2.57372 178.672C2.72342 178.826 2.84111 178.938 2.92666 179.006L10.9355 186.733C11.0895 186.887 11.2777 186.964 11.5002 186.964C11.7226 186.964 11.911 186.887 12.0649 186.733L20.061 179.032C22.0205 177.073 23.0002 175.147 23.0002 173.256C23.0002 171.374 22.4569 169.902 21.3702 168.841ZM18.9444 177.825L11.5002 185L4.04338 177.812C2.44326 176.213 1.64334 174.694 1.64334 173.256C1.64334 172.563 1.73531 171.951 1.91918 171.421C2.10318 170.891 2.33847 170.469 2.6251 170.157C2.91178 169.844 3.2604 169.59 3.67111 169.393C4.08204 169.196 4.48416 169.064 4.87769 168.995C5.27123 168.927 5.69043 168.893 6.13544 168.893C6.58031 168.893 7.05952 169.002 7.57292 169.22C8.08622 169.438 8.55902 169.712 8.99102 170.041C9.42322 170.371 9.79322 170.679 10.1014 170.965C10.4094 171.252 10.666 171.515 10.8714 171.755C11.0253 171.943 11.2351 172.037 11.5003 172.037C11.7655 172.037 11.9751 171.943 12.1292 171.755C12.3345 171.515 12.5913 171.252 12.8993 170.965C13.2073 170.679 13.5774 170.371 14.0094 170.041C14.4416 169.712 14.9143 169.438 15.4279 169.22C15.9411 169.002 16.4205 168.893 16.8654 168.893C17.3103 168.893 17.7294 168.927 18.1231 168.995C18.5168 169.064 18.9189 169.196 19.3297 169.393C19.7404 169.59 20.089 169.844 20.3756 170.157C20.6623 170.469 20.8976 170.891 21.0816 171.421C21.2653 171.951 21.3573 172.563 21.3573 173.256C21.3572 174.694 20.5531 176.217 18.9444 177.825Z" fill="#B5B5B5"/>
<path d="M4.80597 194.38L5.77709 202.38C5.86459 203.101 6.1588 203.786 6.62818 204.362C9.31892 207.659 11.0977 208.449 11.5095 208.466C11.5254 208.466 11.5478 208.462 11.5679 208.46V192.909C9.96662 193.87 7.95932 194.424 5.84376 194.424C5.49614 194.424 5.14935 194.409 4.80597 194.38Z" fill="#B5B5B5"/>
<path d="M21.4973 190.831C21.2989 190.697 21.0631 190.628 20.8246 190.628C20.6688 190.628 20.5121 190.658 20.3644 190.718C19.4876 191.077 18.4614 191.283 17.3645 191.283C14.9129 191.283 12.8173 190.253 11.9446 188.792C11.8762 188.678 11.7461 188.607 11.6044 188.607C11.4619 188.607 11.3319 188.678 11.2635 188.793C10.9376 189.339 10.4392 189.824 9.81642 190.219C9.56802 190.376 9.29462 190.514 9.00872 190.64C8.94212 190.67 8.87042 190.695 8.80112 190.723C8.58942 190.808 8.37182 190.885 8.14432 190.951C8.04682 190.98 7.94832 191.007 7.84762 191.032C7.62672 191.088 7.39912 191.132 7.16562 191.169C7.06652 191.185 6.96904 191.204 6.86728 191.216C6.53386 191.257 6.19382 191.283 5.84369 191.283C4.67172 191.283 3.5824 191.047 2.66776 190.642C2.58104 190.604 2.00884 190.425 1.51662 190.731C1.17373 190.945 0.999843 191.323 1.04568 191.701L2.38358 202.728C2.53859 204.003 3.0605 205.221 3.89655 206.246C5.60285 208.337 8.71622 211.607 11.5061 211.607C14.3987 211.607 17.4836 208.324 19.1549 206.234C19.9702 205.214 20.4695 204.03 20.6229 202.772L21.9549 191.79C22.0007 191.418 21.8256 191.052 21.4973 190.831ZM18.9266 202.597C18.8048 203.593 18.4189 204.503 17.7795 205.303C15.4105 208.267 13.0649 210.036 11.5061 210.036C10.0365 210.036 7.64422 208.223 5.26191 205.304C4.61089 204.505 4.20156 203.554 4.0798 202.554L2.84867 192.404C3.7881 192.7 4.80679 192.854 5.84369 192.854C8.10022 192.854 10.1941 192.121 11.6044 190.905C13.0149 192.121 15.1088 192.854 17.3644 192.854C18.3239 192.854 19.2733 192.721 20.1552 192.466L18.9266 202.597Z" fill="#B5B5B5"/>
<path d="M11.5004 221.818C10.929 221.818 10.5228 222.059 10.5228 222.414V227.251C10.5228 227.556 10.9291 227.861 11.5004 227.861C12.0462 227.861 12.4906 227.556 12.4906 227.251V222.414C12.4906 222.059 12.0462 221.818 11.5004 221.818Z" fill="#B5B5B5"/>
<path d="M11.5003 218.834C10.9163 218.834 10.4593 219.253 10.4593 219.735C10.4593 220.218 10.9163 220.649 11.5003 220.649C12.0716 220.649 12.5286 220.218 12.5286 219.735C12.5286 219.253 12.0716 218.834 11.5003 218.834Z" fill="#B5B5B5"/>
<path d="M11.5002 213.607C6.03765 213.607 1.61743 218.025 1.61743 223.484C1.61743 227.942 4.55231 231.643 8.50922 232.9L10.7567 236.213C10.9239 236.459 11.2024 236.607 11.5002 236.607C11.7981 236.607 12.0765 236.459 12.2437 236.213L14.4913 232.9C18.4499 231.643 21.383 227.94 21.383 223.484C21.383 218.022 16.9593 213.607 11.5002 213.607ZM13.6854 231.266C13.4808 231.323 13.3032 231.451 13.1839 231.627L11.5002 234.108L9.81662 231.627C9.69732 231.451 9.51962 231.323 9.31502 231.266C5.94687 230.324 3.4143 227.226 3.4143 223.484C3.4143 219.029 7.04162 215.404 11.5002 215.404C15.9588 215.404 19.5862 219.029 19.5862 223.484C19.5862 227.23 17.0499 230.325 13.6854 231.266Z" fill="#B5B5B5"/>
<path d="M19.1347 265.606C17.3789 263.065 14.5961 261.607 11.5005 261.607C8.40492 261.607 5.62213 263.065 3.86626 265.606C2.11903 268.134 1.71559 271.335 2.78491 274.163C3.07092 274.936 3.52558 275.686 4.13301 276.389L10.8883 284.324C11.041 284.503 11.2649 284.607 11.5005 284.607C11.7361 284.607 11.96 284.504 12.1127 284.324L18.8661 276.391C19.4762 275.684 19.9303 274.935 20.2139 274.169C21.2854 271.335 20.882 268.134 19.1347 265.606ZM18.708 273.605C18.4893 274.196 18.1322 274.781 17.6472 275.343C17.6459 275.344 17.6445 275.346 17.6435 275.347L11.5005 282.562L5.35376 275.343C4.8691 274.781 4.51202 274.197 4.29114 273.6C3.4068 271.261 3.74242 268.614 5.18917 266.521C6.64046 264.42 8.94102 263.215 11.5005 263.215C14.06 263.215 16.3602 264.42 17.8116 266.521C19.2586 268.614 19.5945 271.261 18.708 273.605Z" fill="#B5B5B5"/>
<path d="M11.5005 266.378C9.01742 266.378 6.99701 268.399 6.99701 270.882C6.99701 273.365 9.01712 275.385 11.5005 275.385C13.9839 275.385 16.004 273.365 16.004 270.882C16.004 268.399 13.9836 266.378 11.5005 266.378ZM11.5005 273.777C9.90422 273.777 8.60542 272.478 8.60542 270.882C8.60542 269.286 9.90422 267.987 11.5005 267.987C13.0968 267.987 14.3956 269.286 14.3956 270.882C14.3956 272.478 13.0968 273.777 11.5005 273.777Z" fill="#B5B5B5"/>
<path d="M16.5307 307.607C15.7882 307.607 15.0521 307.476 14.3322 307.214C11.161 306.062 8.21742 304.186 5.81955 301.788C3.42171 299.39 1.5454 296.447 0.393432 293.275C0.0232418 292.256 -0.0859982 291.204 0.0688418 290.148C0.213892 289.159 0.596962 288.199 1.1767 287.372C1.759 286.541 2.53531 285.85 3.42167 285.373C4.36688 284.865 5.39856 284.607 6.48814 284.607C6.82701 284.607 7.11992 284.844 7.19092 285.175L8.31902 290.44C8.37012 290.678 8.29682 290.926 8.12452 291.099L6.19683 293.026C8.01532 296.642 10.966 299.592 14.5814 301.411L16.509 299.483C16.6814 299.311 16.9295 299.238 17.1679 299.289L22.4324 300.417C22.7638 300.488 23.0005 300.781 23.0005 301.119C23.0005 302.209 22.7428 303.241 22.2345 304.186C21.7578 305.072 21.0666 305.849 20.2355 306.431C19.4082 307.011 18.4481 307.394 17.4591 307.539C17.1492 307.584 16.8393 307.607 16.5307 307.607ZM5.91388 286.076C4.47666 286.235 3.20102 286.988 2.35392 288.197C1.40135 289.556 1.17922 291.229 1.74449 292.785C3.95923 298.881 8.72622 303.648 14.823 305.863C16.3791 306.428 18.0512 306.206 19.4108 305.254C20.6198 304.407 21.3731 303.131 21.5317 301.694L17.249 300.776L15.2359 302.789C15.0217 303.003 14.6962 303.06 14.4221 302.931C10.1461 300.923 6.68498 297.461 4.67615 293.186C4.54737 292.911 4.60423 292.586 4.81846 292.372L6.83159 290.359L5.91388 286.076Z" fill="#B5B5B5"/>
<path d="M21.4503 82.1335C21.4496 82.133 21.4491 82.1323 21.4486 82.1318L12.4743 73.1579C12.0918 72.7752 11.5832 72.5645 11.0422 72.5645C10.5013 72.5645 9.99272 72.7752 9.61002 73.1579L0.64043 82.1273C0.63741 82.1303 0.63422 82.1335 0.63137 82.1365C-0.15415 82.9266 -0.15281 84.2084 0.63523 84.9965C0.99526 85.3567 1.4706 85.5651 1.97901 85.5871C1.99983 85.5891 2.02064 85.59 2.04162 85.59H2.39913V92.1942C2.39913 93.5013 3.46261 94.5646 4.76964 94.5646H8.28062C8.63662 94.5646 8.92522 94.2759 8.92522 93.92V88.7423C8.92522 88.1459 9.41042 87.6609 10.0068 87.6609H12.0777C12.674 87.6609 13.1591 88.1459 13.1591 88.7423V93.92C13.1591 94.2759 13.4476 94.5646 13.8036 94.5646H17.3147C18.6219 94.5646 19.6852 93.5013 19.6852 92.1942V85.59H20.0168C20.5576 85.59 21.0662 85.3795 21.4491 84.9966C22.238 84.2074 22.2383 82.9232 21.4503 82.1335ZM20.5375 84.0852C20.3984 84.2244 20.2134 84.3011 20.0168 84.3011H19.0406C18.6846 84.3011 18.3961 84.5895 18.3961 84.9455V92.1942C18.3961 92.7904 17.911 93.2755 17.3147 93.2755H14.4482V88.7423C14.4482 87.4353 13.3849 86.3717 12.0777 86.3717H10.0068C8.69962 86.3717 7.63612 87.4353 7.63612 88.7423V93.2755H4.76964C4.17344 93.2755 3.6882 92.7904 3.6882 92.1942V84.9455C3.6882 84.5895 3.39967 84.3011 3.04367 84.3011H2.08425C2.07418 84.3004 2.06428 84.2999 2.05404 84.2997C1.86202 84.2964 1.68192 84.2202 1.54697 84.085C1.25996 83.798 1.25996 83.3309 1.54697 83.0437C1.54714 83.0437 1.54714 83.0436 1.54731 83.0434L1.54781 83.0429L10.5217 74.0693C10.6607 73.9301 10.8455 73.8536 11.0422 73.8536C11.2388 73.8536 11.4236 73.9301 11.5627 74.0693L20.5346 83.041C20.536 83.0424 20.5375 83.0437 20.5388 83.0451C20.8244 83.3326 20.8238 83.7987 20.5375 84.0852Z" fill="#B5B5B5"/>
<path d="M11.0559 237.607C11.0552 237.607 11.0544 237.607 11.0537 237.607C11.0501 237.607 11.0467 237.607 11.0432 237.607C11.0427 237.607 11.0421 237.607 11.0416 237.607C11.0402 237.607 11.0388 237.607 11.0375 237.607C4.97541 237.61 0.000244141 242.516 0.000244141 248.564C0.000244141 250.043 0.294794 251.483 0.875774 252.844C2.00056 255.481 4.12107 257.604 6.76269 258.731C8.12402 259.312 9.56402 259.607 11.0426 259.607C11.043 259.607 11.0433 259.607 11.0437 259.607C11.0447 259.607 11.0457 259.607 11.0467 259.607C17.129 259.605 22.0002 254.594 22.0002 248.564C22.0002 242.517 17.1122 237.614 11.0559 237.607ZM8.90842 239.13C7.80922 240.172 6.91111 241.392 6.23482 242.763H3.24502C4.61619 240.957 6.61041 239.64 8.90842 239.13ZM2.41878 244.044H5.68401C5.23314 245.279 4.96656 246.595 4.89777 247.919H1.31152C1.4042 246.53 1.79414 245.212 2.41878 244.044ZM2.44305 253.162C1.80325 251.97 1.40437 250.63 1.31117 249.209H4.89339C4.95492 250.562 5.22347 251.9 5.68409 253.162H2.44305ZM3.2714 254.451H6.23482C6.90982 255.819 7.80662 257.039 8.90552 258.081C6.6233 257.569 4.64116 256.255 3.2714 254.451ZM6.18434 249.209H10.3986V253.162H7.07402C6.55932 251.922 6.25347 250.587 6.18434 249.209ZM10.3987 257.678C9.30282 256.766 8.39422 255.67 7.70322 254.451H10.3986V257.678H10.3987ZM10.3987 247.919H6.18868C6.26598 246.571 6.57007 245.267 7.07412 244.052H10.3987V247.919ZM10.3987 242.763H7.70332C8.39422 241.544 9.30292 240.448 10.3987 239.536V242.763ZM19.5916 244.052C20.2108 245.221 20.5972 246.53 20.6891 247.919H17.1885C17.1198 246.595 16.8532 245.288 16.4023 244.052H19.5916ZM18.7727 242.763H15.8516C15.1771 241.396 14.2812 240.177 13.1837 239.135C15.4511 239.65 17.4184 240.963 18.7727 242.763ZM11.6877 239.536C12.7836 240.448 13.6925 241.544 14.3835 242.763H11.6877V239.536ZM11.6877 244.052H15.0131C15.5171 245.266 15.8205 246.572 15.8978 247.919H11.6877V244.052ZM15.9024 249.2C15.8333 250.578 15.5278 251.922 15.0131 253.162H11.6877V249.2H15.9024ZM11.6877 257.678V254.442H14.3835C13.6925 255.662 12.7836 256.766 11.6877 257.678ZM13.1867 258.076C14.282 257.036 15.1772 255.809 15.8515 254.442H18.7465C17.3938 256.24 15.4384 257.56 13.1867 258.076ZM16.4024 253.162C16.863 251.9 17.1315 250.553 17.1931 249.2H20.6895C20.5971 250.622 20.2018 251.97 19.5676 253.162H16.4024Z" fill="#B5B5B5"/>
<path d="M20.9589 37.3425V32.2239C20.9589 31.901 20.7756 31.6147 20.505 31.5157L10.6805 27.9167C10.5499 27.8689 10.4092 27.8689 10.2786 27.9167L0.454104 31.5157C0.183704 31.6147 0.000244141 31.9008 0.000244141 32.2239C0.000244141 32.5468 0.183704 32.8329 0.454104 32.9319L5.37268 34.7338V37.5254C5.37268 37.5376 5.37301 37.5496 5.37352 37.5616C5.39299 38.2857 5.99505 38.9717 7.07382 39.4972C8.05922 39.9773 9.26892 40.2416 10.4797 40.2416C11.6906 40.2416 12.9002 39.9773 13.8857 39.4972C14.9824 38.963 15.5865 38.2628 15.5865 37.5254V34.7338L19.6494 33.2455V37.3425C19.0384 37.6341 18.608 38.3211 18.608 39.1203V41.6413C18.608 42.0521 18.9013 42.3853 19.2628 42.3853H21.3455C21.707 42.3853 22.0002 42.0521 22.0002 41.6413V39.1203C22.0002 38.3211 21.57 37.6341 20.9589 37.3425ZM13.1648 38.2237C12.3747 38.5653 11.4212 38.7535 10.4797 38.7535C9.53812 38.7535 8.58462 38.5653 7.79472 38.2237C7.10232 37.924 6.76127 37.6 6.68222 37.464V35.2135L10.2786 36.5309C10.3439 36.5547 10.4118 36.5668 10.4796 36.5668C10.5474 36.5668 10.6152 36.5549 10.6805 36.5309L14.2769 35.2135V37.4645C14.1972 37.6007 13.8563 37.9244 13.1648 38.2237ZM10.4796 35.0411L2.78901 32.2239L10.4796 29.4068L18.1701 32.2239L10.4796 35.0411ZM20.6907 40.8972H19.9176V39.1203C19.9176 38.8781 20.0911 38.6811 20.3041 38.6811C20.5173 38.6811 20.6907 38.8781 20.6907 39.1203V40.8972Z" fill="#B5B5B5"/>
<path fill-rule="evenodd" clip-rule="evenodd" d="M12.8825 159.141V157.066C14.2699 156.707 15.5334 155.841 16.567 154.807C19.6322 151.742 19.7406 146.863 16.8087 143.931C13.8768 140.999 8.99781 141.108 5.93266 144.173C2.86748 147.238 2.75903 152.117 5.69092 155.049C6.68689 156.045 8.37781 156.812 9.76171 157.106V159.133H8.06331C5.97451 159.133 5.83457 161.705 8.06331 161.705H9.76161V163.402C9.76161 165.785 12.8824 165.769 12.8824 163.448L12.8825 161.664H14.7526C17.4239 161.705 17.4239 159.133 14.7526 159.141H12.8825ZM10.2474 156.108L9.76161 156.037C8.42401 155.842 7.47751 155.147 6.53546 154.205C4.04896 151.718 4.14094 147.58 6.74046 144.981C9.34001 142.381 13.4778 142.289 15.9643 144.776C18.4507 147.262 18.3588 151.4 15.7593 154C14.7813 154.978 14.2201 155.684 12.8825 155.943L12.3953 156.037C12.3652 156.043 12.1134 156.077 12.075 156.082L12.0718 159.922H14.7494C16.0866 159.922 15.8924 160.923 14.7494 160.895L12.0718 160.923L12.075 163.452C12.0718 164.38 10.5902 164.325 10.5902 163.488V160.923H8.54101C7.17181 160.923 7.17181 159.922 8.54101 159.922H10.5902V156.118C10.4567 156.116 10.3358 156.112 10.2474 156.108Z" fill="#B5B5B5"/>
<path d="M14.7309 152.971C16.7376 150.964 16.8086 147.77 14.8891 145.851C12.9696 143.931 9.77541 144.002 7.76871 146.009C5.76194 148.016 5.69096 151.21 7.61041 153.129C9.52991 155.049 12.7242 154.978 14.7309 152.971ZM8.57651 146.817C10.1176 145.276 12.5706 145.221 14.0447 146.695C15.5188 148.169 15.4643 150.622 13.9232 152.163C12.3821 153.705 9.92901 153.759 8.45491 152.285C6.98086 150.811 7.03541 148.358 8.57651 146.817Z" fill="#B5B5B5"/>
</svg>
