<svg width="32" height="32" viewBox="0 0 32 32" fill="none" xmlns="http://www.w3.org/2000/svg">
<path d="M7.27575 4.63685C-5.58428 15.0399 7.27525 34.4348 22.2218 27.5583L29 28.9688L27.6096 21.5633C34.0404 5.51821 16.1399 -2.53414 7.27575 4.63685Z" fill="#149FFE"/>
<path d="M22.2218 27.5583L22.4255 26.5792C22.2161 26.5356 21.9981 26.5604 21.8038 26.6498L22.2218 27.5583ZM7.27575 4.63685L7.90468 5.41432L7.9047 5.4143L7.27575 4.63685ZM27.6096 21.5633L26.6814 21.1912C26.6107 21.3678 26.5917 21.5609 26.6268 21.7478L27.6096 21.5633ZM29 28.9688L28.7963 29.9479C29.1229 30.0158 29.4619 29.9164 29.7001 29.6828C29.9384 29.4492 30.0444 29.1122 29.9828 28.7843L29 28.9688ZM21.8038 26.6498C14.8366 29.8553 8.39697 26.959 5.15703 22.0283C1.9245 17.1088 1.92742 10.2496 7.90468 5.41432L6.64683 3.85938C-0.235949 9.42717 -0.233282 17.467 3.48557 23.1266C7.19702 28.7749 14.6604 32.1378 22.6397 28.4667L21.8038 26.6498ZM7.9047 5.4143C11.9377 2.15164 18.1444 2.29987 22.6313 5.23122C24.8509 6.68125 26.6032 8.78819 27.4381 11.4413C28.2712 14.0886 28.2163 17.3616 26.6814 21.1912L28.5379 21.9353C30.2183 17.7425 30.3374 13.9919 29.3458 10.8409C28.356 7.69559 26.285 5.22918 23.7252 3.55687C18.6536 0.243521 11.4779 -0.0489242 6.64681 3.8594L7.9047 5.4143ZM26.6268 21.7478L28.0172 29.1534L29.9828 28.7843L28.5925 21.3787L26.6268 21.7478ZM29.2037 27.9898L22.4255 26.5792L22.018 28.5373L28.7963 29.9479L29.2037 27.9898Z" fill="#149FFE"/>
</svg>
