<svg width="36" height="36" viewBox="0 0 36 36" fill="none" xmlns="http://www.w3.org/2000/svg">
<path d="M25.2176 31.3447L25.4213 30.3657C25.2119 30.3221 24.994 30.3468 24.7996 30.4362L25.2176 31.3447ZM8.05735 5.0275L8.68627 5.80496L8.68629 5.80494L8.05735 5.0275ZM31.4037 24.4615L30.4754 24.0895C30.4047 24.2661 30.3857 24.4591 30.4208 24.6461L31.4037 24.4615ZM33 32.9642L32.7963 33.9433C33.1229 34.0112 33.4619 33.9118 33.7001 33.6782C33.9384 33.4446 34.0444 33.1076 33.9828 32.7797L33 32.9642ZM24.7996 30.4362C16.7253 34.1511 9.25579 30.7912 5.50092 25.0768C1.75348 19.3737 1.75642 11.4108 8.68627 5.80496L7.42842 4.25003C-0.406951 10.5884 -0.404303 19.7318 3.82947 26.1751C8.05583 32.607 16.5491 36.4336 25.6355 32.2531L24.7996 30.4362ZM8.68629 5.80494C13.3759 2.0111 20.5739 2.19198 25.7689 5.58589C28.3424 7.26721 30.3779 9.71292 31.348 12.7955C32.3163 15.8724 32.2485 19.6656 30.4754 24.0895L32.3319 24.8336C34.2505 20.0465 34.3825 15.7757 33.2558 12.1951C32.1308 8.62032 29.7765 5.81514 26.8627 3.91154C21.083 0.135624 12.9161 -0.189465 7.4284 4.25005L8.68629 5.80494ZM30.4208 24.6461L32.0172 33.1488L33.9828 32.7797L32.3865 24.277L30.4208 24.6461ZM33.2037 31.9852L25.4213 30.3657L25.0138 32.3237L32.7963 33.9433L33.2037 31.9852Z" fill="var(--colorWhiteM)"/>
</svg>
