<svg width="96" height="77" viewBox="0 0 96 77" fill="none" xmlns="http://www.w3.org/2000/svg">
<path d="M28.8 38.5C38.085 38.5 45.6 30.9654 45.6 21.6562C45.6 12.3471 38.085 4.8125 28.8 4.8125C19.515 4.8125 12 12.3471 12 21.6562C12 30.9654 19.515 38.5 28.8 38.5ZM40.32 43.3125H39.075C35.955 44.8164 32.49 45.7188 28.8 45.7188C25.11 45.7188 21.66 44.8164 18.525 43.3125H17.28C7.74 43.3125 0 51.0727 0 60.6375V64.9688C0 68.9541 3.225 72.1875 7.2 72.1875H50.4C54.375 72.1875 57.6 68.9541 57.6 64.9688V60.6375C57.6 51.0727 49.86 43.3125 40.32 43.3125ZM72 38.5C79.95 38.5 86.4 32.0332 86.4 24.0625C86.4 16.0918 79.95 9.625 72 9.625C64.05 9.625 57.6 16.0918 57.6 24.0625C57.6 32.0332 64.05 38.5 72 38.5ZM79.2 43.3125H78.63C76.545 44.0344 74.34 44.5156 72 44.5156C69.66 44.5156 67.455 44.0344 65.37 43.3125H64.8C61.74 43.3125 58.92 44.1998 56.445 45.6285C60.105 49.5838 62.4 54.8324 62.4 60.6375V66.4125C62.4 66.7434 62.325 67.0592 62.31 67.375H88.8C92.775 67.375 96 64.1416 96 60.1562C96 50.8471 88.485 43.3125 79.2 43.3125V43.3125Z" fill="white"/>
</svg>
