<svg width="36" height="36" viewBox="0 0 36 36" fill="none" xmlns="http://www.w3.org/2000/svg">
<g clip-path="url(#clip0)">
<path d="M15.8973 5.80657L15.8969 5.8061C12.6831 2.49008 7.54876 2.01343 4.14384 4.91452C0.173462 8.30325 -0.0390358 14.3993 3.52373 18.076L3.52392 18.0762L17.1292 32.1244C17.1293 32.1245 17.1293 32.1245 17.1294 32.1246C17.6153 32.6259 18.3919 32.6259 18.8779 32.1246C18.8779 32.1245 18.878 32.1245 18.8781 32.1244L32.4829 18.0766C36.0393 14.4 35.8269 8.30363 31.8567 4.91477C28.4514 2.01307 23.3103 2.49057 20.1041 5.80538L20.1029 5.80657L18.7177 7.23391L18.0001 7.9734L17.2825 7.23391L15.8973 5.80657Z" stroke="#262626" stroke-width="2"/>
</g>
<defs>
<clipPath id="clip0">
<rect width="36" height="36" fill="white" transform="matrix(-1 0 0 1 36 0)"/>
</clipPath>
</defs>
</svg>
