<svg width="28" height="28" viewBox="0 0 28 28" fill="none" xmlns="http://www.w3.org/2000/svg">
<path d="M14 28C21.732 28 28 21.732 28 14C28 6.26801 21.732 0 14 0C6.26801 0 0 6.26801 0 14C0 21.732 6.26801 28 14 28Z" fill="#FFD54F"/>
<path d="M8.1667 13.9999C9.45537 13.9999 10.5 12.9553 10.5 11.6666C10.5 10.3779 9.45537 9.33325 8.1667 9.33325C6.87804 9.33325 5.83337 10.3779 5.83337 11.6666C5.83337 12.9553 6.87804 13.9999 8.1667 13.9999Z" fill="#6D4C41"/>
<path d="M19.8333 13.9999C21.122 13.9999 22.1667 12.9553 22.1667 11.6666C22.1667 10.3779 21.122 9.33325 19.8333 9.33325C18.5447 9.33325 17.5 10.3779 17.5 11.6666C17.5 12.9553 18.5447 13.9999 19.8333 13.9999Z" fill="#6D4C41"/>
<path d="M20.125 22.954C19.901 22.954 19.677 22.8688 19.5067 22.6973C18.0355 21.2262 16.0802 20.4165 14 20.4165C11.9199 20.4165 9.96452 21.2262 8.49335 22.6973C8.15152 23.0392 7.59735 23.0392 7.25552 22.6973C6.91369 22.3555 6.91369 21.8013 7.25552 21.4595C9.05802 19.6582 11.452 18.6665 14 18.6665C16.548 18.6665 18.942 19.6582 20.7434 21.4607C21.0852 21.8025 21.0852 22.3567 20.7434 22.6985C20.573 22.8688 20.349 22.954 20.125 22.954Z" fill="#6D4C41"/>
<path d="M10.7918 8.55499C10.6249 8.55499 10.4558 8.50715 10.3064 8.40798L7.38977 6.46315C6.98727 6.19598 6.87877 5.65231 7.1471 5.24981C7.41427 4.84731 7.95793 4.73881 8.36043 5.00715L11.2771 6.95198C11.6796 7.22032 11.7881 7.76282 11.5198 8.16532C11.3506 8.41848 11.0741 8.55499 10.7918 8.55499Z" fill="#6D4C41"/>
<path d="M17.2084 8.55503C16.926 8.55503 16.6484 8.41853 16.4792 8.16537C16.2109 7.76287 16.3194 7.22037 16.7219 6.95203L19.6385 5.0072C20.0387 4.73887 20.5835 4.8462 20.8519 5.24987C21.1202 5.65237 21.0117 6.19487 20.6092 6.4632L17.6925 8.40803C17.5444 8.50836 17.3764 8.55503 17.2084 8.55503Z" fill="#6D4C41"/>
</svg>
