<svg width="28" height="28" viewBox="0 0 28 28" fill="none" xmlns="http://www.w3.org/2000/svg">
<path d="M14 28C21.732 28 28 21.732 28 14C28 6.26801 21.732 0 14 0C6.26801 0 0 6.26801 0 14C0 21.732 6.26801 28 14 28Z" fill="#FFD54F"/>
<path d="M24.3156 8.3708C24.0228 8.33463 17.4066 7.5448 14 9.36363C10.5933 7.54597 3.97829 8.33463 3.68429 8.3708C3.24563 8.42563 2.91663 8.7978 2.91663 9.2388C2.91663 11.6993 4.04829 16.352 8.32879 16.352C11.2011 16.352 13.0106 14.5331 14 12.7505C14.9893 14.5331 16.8 16.352 19.6711 16.352C23.9516 16.352 25.0833 11.6993 25.0833 9.2388C25.0833 8.7978 24.7543 8.42563 24.3156 8.3708Z" fill="#455A64"/>
<path d="M14 23.3157C11.5582 23.3157 9.11518 22.3859 7.25668 20.5262C6.91485 20.1844 6.91485 19.6302 7.25668 19.2884C7.59851 18.9465 8.15268 18.9465 8.49451 19.2884C9.96568 20.7595 11.921 21.5692 14.0012 21.5692C16.0813 21.5692 18.0367 20.7595 19.5078 19.2884C19.8497 18.9465 20.4038 18.9465 20.7457 19.2884C21.0875 19.6302 21.0875 20.1844 20.7457 20.5262C18.8848 22.3859 16.4418 23.3157 14 23.3157Z" fill="#6D4C41"/>
</svg>
