<svg width="28" height="28" viewBox="0 0 28 28" fill="none" xmlns="http://www.w3.org/2000/svg">
<path d="M14 28C21.732 28 28 21.732 28 14C28 6.26801 21.732 0 14 0C6.26801 0 0 6.26801 0 14C0 21.732 6.26801 28 14 28Z" fill="#FFD54F"/>
<path d="M9.33337 9.04175V27.1951C8.07337 26.7517 6.89504 26.1334 5.83337 25.3634V9.04175H9.33337Z" fill="#00BCD4"/>
<path d="M22.1666 9.04175V25.3751C21.105 26.1451 19.9266 26.7634 18.6666 27.1951V9.04175H22.1666Z" fill="#00BCD4"/>
<path d="M14 16.3916C12.0703 16.3916 10.5 17.9619 10.5 19.8916V20.9416C10.5 22.8713 12.0703 24.4416 14 24.4416C15.9297 24.4416 17.5 22.8713 17.5 20.9416V19.8916C17.5 17.9619 15.9297 16.3916 14 16.3916Z" fill="#E53935"/>
<path d="M10.7917 9.91675H4.375C3.892 9.91675 3.5 9.52475 3.5 9.04175C3.5 8.55875 3.892 8.16675 4.375 8.16675H10.7917C11.2747 8.16675 11.6667 8.55875 11.6667 9.04175C11.6667 9.52475 11.2747 9.91675 10.7917 9.91675Z" fill="#6D4C41"/>
<path d="M23.625 9.91675H17.2084C16.7254 9.91675 16.3334 9.52475 16.3334 9.04175C16.3334 8.55875 16.7254 8.16675 17.2084 8.16675H23.625C24.108 8.16675 24.5 8.55875 24.5 9.04175C24.5 9.52475 24.108 9.91675 23.625 9.91675Z" fill="#6D4C41"/>
</svg>
