<svg width="28" height="28" viewBox="0 0 28 28" fill="none" xmlns="http://www.w3.org/2000/svg">
<path d="M14 28C21.732 28 28 21.732 28 14C28 6.26801 21.732 0 14 0C6.26801 0 0 6.26801 0 14C0 21.732 6.26801 28 14 28Z" fill="#FFD54F"/>
<path d="M12.5428 23.3335C12.222 23.3335 11.9128 23.1562 11.7588 22.8493C11.5418 22.4165 11.718 21.8915 12.1508 21.6757L13.6406 20.9302L12.0913 20.0003C11.8288 19.8428 11.6667 19.5582 11.6667 19.2502C11.6667 18.9422 11.8288 18.6575 12.0913 18.5L13.6406 17.5702L12.1508 16.8247C11.718 16.6077 11.543 16.0827 11.7588 15.651C11.977 15.2193 12.5008 15.0443 12.9325 15.2602L15.8491 16.7185C16.135 16.862 16.3205 17.149 16.3321 17.4675C16.345 17.786 16.1816 18.087 15.9086 18.2515L14.2426 19.2502L15.9086 20.25C16.1816 20.4145 16.345 20.7143 16.3321 21.034C16.3205 21.3525 16.135 21.6407 15.8491 21.783L12.9325 23.2413C12.8076 23.3043 12.6735 23.3335 12.5428 23.3335Z" fill="#6D4C41"/>
<path d="M8.16665 12.8334C9.45531 12.8334 10.5 11.7887 10.5 10.5001C10.5 9.21142 9.45531 8.16675 8.16665 8.16675C6.87798 8.16675 5.83331 9.21142 5.83331 10.5001C5.83331 11.7887 6.87798 12.8334 8.16665 12.8334Z" fill="#6D4C41"/>
<path d="M19.8333 12.8334C21.122 12.8334 22.1667 11.7887 22.1667 10.5001C22.1667 9.21142 21.122 8.16675 19.8333 8.16675C18.5447 8.16675 17.5 9.21142 17.5 10.5001C17.5 11.7887 18.5447 12.8334 19.8333 12.8334Z" fill="#6D4C41"/>
<path d="M25.1475 18.6667C24.472 18.6667 23.835 18.8942 23.3333 19.2862C22.8316 18.8942 22.1946 18.6667 21.5191 18.6667C19.9465 18.6667 18.6666 19.8894 18.6666 21.3909C18.6666 23.7324 22.1375 26.2734 22.8316 26.7587C22.9833 26.8637 23.1571 26.9162 23.3333 26.9162C23.5095 26.9162 23.6833 26.8637 23.835 26.7587C24.5291 26.2734 28 23.7336 28 21.3909C28 19.8894 26.7201 18.6667 25.1475 18.6667Z" fill="#E53935"/>
</svg>
