<svg width="28" height="28" viewBox="0 0 28 28" fill="none" xmlns="http://www.w3.org/2000/svg">
<path d="M14 28C21.732 28 28 21.732 28 14C28 6.26801 21.732 0 14 0C6.26801 0 0 6.26801 0 14C0 21.732 6.26801 28 14 28Z" fill="#FFD54F"/>
<path d="M11.0834 11.9583C10.6004 11.9583 10.2084 11.5663 10.2084 11.0833C10.2084 10.2795 9.55385 9.625 8.75002 9.625C7.94619 9.625 7.29169 10.2795 7.29169 11.0833C7.29169 11.5663 6.89969 11.9583 6.41669 11.9583C5.93369 11.9583 5.54169 11.5663 5.54169 11.0833C5.54169 9.3135 6.98019 7.875 8.75002 7.875C10.5199 7.875 11.9584 9.3135 11.9584 11.0833C11.9584 11.5663 11.5664 11.9583 11.0834 11.9583Z" fill="#6D4C41"/>
<path d="M21.5834 11.9583C21.1004 11.9583 20.7084 11.5663 20.7084 11.0833C20.7084 10.2795 20.0539 9.625 19.25 9.625C18.4462 9.625 17.7917 10.2795 17.7917 11.0833C17.7917 11.5663 17.3997 11.9583 16.9167 11.9583C16.4337 11.9583 16.0417 11.5663 16.0417 11.0833C16.0417 9.3135 17.4802 7.875 19.25 7.875C21.0199 7.875 22.4584 9.3135 22.4584 11.0833C22.4584 11.5663 22.0664 11.9583 21.5834 11.9583Z" fill="#6D4C41"/>
<path d="M23.8817 17.4649C23.6133 18.3166 23.2633 19.0983 22.8083 19.8333H5.19166C4.73666 19.0983 4.38666 18.3166 4.11832 17.4649C4.03666 17.1966 4.08332 16.9166 4.25832 16.6949C4.42166 16.4616 4.67832 16.3333 4.95832 16.3333H23.0417C23.3217 16.3333 23.5783 16.4616 23.7417 16.6949C23.9167 16.9166 23.9633 17.1966 23.8817 17.4649Z" fill="white"/>
<path d="M22.8083 19.8333C20.965 22.8549 17.6633 24.7566 14 24.7566C10.3367 24.7566 7.03498 22.8549 5.19165 19.8333H22.8083Z" fill="#E53935"/>
</svg>
