<svg width="26" height="27" viewBox="0 0 26 27" fill="none" xmlns="http://www.w3.org/2000/svg">
<g clip-path="url(#clip0)">
<path d="M18.4826 2.97813C18.4826 1.52593 17.3715 0.312832 15.9732 0.293689C14.6244 0.275285 13.5096 1.35291 13.405 2.72195C12.8595 5.32682 11.6645 6.16155 7.27199 10.8586L5.93482 10.8588C5.46865 10.8588 5.08698 11.2531 5.08698 11.7392V24.0653C5.08698 24.5514 5.46651 24.9456 5.93467 24.9456H20.9131C22.8189 24.9444 24.1018 22.8133 23.117 21.0096C24.2196 20.2838 24.6728 18.7846 23.9648 17.4879C25.0675 16.7621 25.5207 15.2629 24.8126 13.9661C25.5241 13.4978 25.9995 12.6788 26.0001 11.7392C25.9991 10.2801 24.8616 9.09875 23.4566 9.09785H17.2849C17.988 6.90769 18.4826 5.32376 18.4826 2.97813Z" fill="#FFDAB3"/>
<path d="M5.9348 9.0979H0.847844C0.381621 9.0979 0 9.49225 0 9.97835V25.8262C0 26.3121 0.379945 26.7065 0.847844 26.7065H5.9348C6.4027 26.7065 6.78265 26.312 6.78265 25.8262V9.97835C6.7826 9.49225 6.40098 9.0979 5.9348 9.0979Z" fill="#32BBFF"/>
<path d="M5.93478 9.0979H3.3913V26.7065H5.93478C6.40268 26.7065 6.78263 26.3119 6.78263 25.8262V9.97835C6.78258 9.49225 6.4009 9.0979 5.93478 9.0979Z" fill="#2C9FD9"/>
<path d="M23.4565 9.0979H22.0435L6.78271 24.9456H20.9131C22.8189 24.9444 24.1018 22.8133 23.117 21.0096C24.2196 20.2838 24.6728 18.7846 23.9648 17.4879C25.0675 16.7621 25.5207 15.2629 24.8126 13.9661C25.5241 13.4978 25.9995 12.6788 26.0001 11.7392C25.999 10.2802 24.8616 9.0988 23.4565 9.0979Z" fill="#FFC3A6"/>
</g>
<defs>
<clipPath id="clip0">
<rect width="26" height="27" fill="white"/>
</clipPath>
</defs>
</svg>
