<svg width="28" height="28" viewBox="0 0 28 28" fill="none" xmlns="http://www.w3.org/2000/svg">
<path d="M14 28C21.732 28 28 21.732 28 14C28 6.26801 21.732 0 14 0C6.26801 0 0 6.26801 0 14C0 21.732 6.26801 28 14 28Z" fill="#FFD54F"/>
<path d="M19.8964 22.8585C19.6724 22.8585 19.4484 22.7734 19.278 22.6019C16.3684 19.6922 11.6329 19.6922 8.72321 22.6019C8.38138 22.9437 7.82721 22.9437 7.48538 22.6019C7.14355 22.26 7.14355 21.7059 7.48538 21.364C11.0764 17.7719 16.9237 17.7719 20.5147 21.364C20.8565 21.7059 20.8565 22.26 20.5147 22.6019C20.3432 22.7734 20.1204 22.8585 19.8964 22.8585Z" fill="#6D4C41"/>
<path d="M8.75004 12.8334C7.14121 12.8334 5.83337 11.5244 5.83337 9.91675C5.83337 9.43375 6.22537 9.04175 6.70837 9.04175C7.19137 9.04175 7.58337 9.43375 7.58337 9.91675C7.58337 10.5596 8.10604 11.0834 8.75004 11.0834C9.39404 11.0834 9.91671 10.5596 9.91671 9.91675C9.91671 9.43375 10.3087 9.04175 10.7917 9.04175C11.2747 9.04175 11.6667 9.43375 11.6667 9.91675C11.6667 11.5244 10.3589 12.8334 8.75004 12.8334Z" fill="#6D4C41"/>
<path d="M19.25 12.8334C17.6412 12.8334 16.3334 11.5244 16.3334 9.91675C16.3334 9.43375 16.7254 9.04175 17.2084 9.04175C17.6914 9.04175 18.0834 9.43375 18.0834 9.91675C18.0834 10.5596 18.606 11.0834 19.25 11.0834C19.894 11.0834 20.4167 10.5596 20.4167 9.91675C20.4167 9.43375 20.8087 9.04175 21.2917 9.04175C21.7747 9.04175 22.1667 9.43375 22.1667 9.91675C22.1667 11.5244 20.8589 12.8334 19.25 12.8334Z" fill="#6D4C41"/>
</svg>
