<svg width="28" height="28" viewBox="0 0 28 28" fill="none" xmlns="http://www.w3.org/2000/svg">
<path d="M14 28C21.732 28 28 21.732 28 14C28 6.26801 21.732 0 14 0C6.26801 0 0 6.26801 0 14C0 21.732 6.26801 28 14 28Z" fill="#FFD54F"/>
<path d="M8.16664 12.8334C9.45531 12.8334 10.5 11.7887 10.5 10.5001C10.5 9.21142 9.45531 8.16675 8.16664 8.16675C6.87798 8.16675 5.83331 9.21142 5.83331 10.5001C5.83331 11.7887 6.87798 12.8334 8.16664 12.8334Z" fill="#6D4C41"/>
<path d="M19.8333 12.8334C21.122 12.8334 22.1667 11.7887 22.1667 10.5001C22.1667 9.21142 21.122 8.16675 19.8333 8.16675C18.5447 8.16675 17.5 9.21142 17.5 10.5001C17.5 11.7887 18.5447 12.8334 19.8333 12.8334Z" fill="#6D4C41"/>
<path d="M14 24.5C9.29017 24.5 5.10884 21.623 3.83134 17.5023C3.68784 17.0403 3.94684 16.5503 4.40767 16.408C4.86967 16.2645 5.35967 16.5235 5.50201 16.9843C6.55551 20.3793 10.0497 22.75 14 22.75C17.9503 22.75 21.4445 20.3793 22.498 16.9843C22.6415 16.5235 23.1327 16.2657 23.5923 16.408C24.0543 16.5515 24.3122 17.0415 24.1687 17.5023C22.8912 21.623 18.7098 24.5 14 24.5Z" fill="#6D4C41"/>
</svg>
