<svg width="28" height="28" viewBox="0 0 28 28" fill="none" xmlns="http://www.w3.org/2000/svg">
<path d="M14 28C21.732 28 28 21.732 28 14C28 6.26801 21.732 0 14 0C6.26801 0 0 6.26801 0 14C0 21.732 6.26801 28 14 28Z" fill="#FFD54F"/>
<path d="M25.6083 19.4741L23.4546 17.3088C23.3274 17.1816 23.1583 17.1116 22.9868 17.0813C22.5108 18.444 21.2998 20.7855 18.3621 22.658C18.3948 22.7081 18.4193 22.7641 18.4636 22.8085L20.3641 24.709C21.0618 25.4136 21.9928 25.8021 22.9868 25.8021C23.9808 25.8021 24.9118 25.4136 25.6036 24.716C26.3083 24.0183 26.6968 23.0873 26.6968 22.0921C26.6956 21.0981 26.3083 20.1671 25.6083 19.4741Z" fill="#E53935"/>
<path d="M23.6226 21.49L21.8773 19.7446C21.5355 19.4028 20.2976 20.6406 20.6395 20.9825L22.3848 22.7278C22.5551 22.8981 22.7791 22.9845 23.0031 22.9845C23.2271 22.9845 23.4511 22.8993 23.6215 22.7278C23.9645 22.386 23.9645 21.8318 23.6226 21.49Z" fill="#D32F2F"/>
<path d="M23.513 15.9917C23.0521 15.8493 22.5621 16.1072 22.4186 16.568C21.2706 20.2675 17.9025 22.7537 14.0385 22.7537C10.1745 22.7537 6.8063 20.2675 5.65713 16.568C5.51363 16.106 5.02597 15.8493 4.5628 15.9917C4.1008 16.1352 3.84297 16.6252 3.98647 17.086C5.3643 21.5228 9.4033 24.5037 14.0385 24.5037C18.6736 24.5037 22.7138 21.5228 24.0905 17.086C24.2328 16.6252 23.9738 16.134 23.513 15.9917Z" fill="#6D4C41"/>
<path d="M10.7916 11.9584C10.3086 11.9584 9.91659 11.5664 9.91659 11.0834C9.91659 10.4406 9.39275 9.91675 8.74992 9.91675C8.10709 9.91675 7.58325 10.4406 7.58325 11.0834C7.58325 11.5664 7.19125 11.9584 6.70825 11.9584C6.22525 11.9584 5.83325 11.5664 5.83325 11.0834C5.83325 9.47575 7.14225 8.16675 8.74992 8.16675C10.3576 8.16675 11.6666 9.47575 11.6666 11.0834C11.6666 11.5664 11.2746 11.9584 10.7916 11.9584Z" fill="#6D4C41"/>
<path d="M21.2916 11.9584C20.8086 11.9584 20.4166 11.5664 20.4166 11.0834C20.4166 10.4406 19.8927 9.91675 19.2499 9.91675C18.6071 9.91675 18.0832 10.4406 18.0832 11.0834C18.0832 11.5664 17.6912 11.9584 17.2082 11.9584C16.7253 11.9584 16.3333 11.5664 16.3333 11.0834C16.3333 9.47575 17.6422 8.16675 19.2499 8.16675C20.8576 8.16675 22.1666 9.47575 22.1666 11.0834C22.1666 11.5664 21.7746 11.9584 21.2916 11.9584Z" fill="#6D4C41"/>
</svg>
