<svg width="28" height="28" viewBox="0 0 28 28" fill="none" xmlns="http://www.w3.org/2000/svg">
<path d="M14 28C21.732 28 28 21.732 28 14C28 6.26801 21.732 0 14 0C6.26801 0 0 6.26801 0 14C0 21.732 6.26801 28 14 28Z" fill="#FFD54F"/>
<path d="M8.1667 12.8334C9.45537 12.8334 10.5 11.7887 10.5 10.5001C10.5 9.21142 9.45537 8.16675 8.1667 8.16675C6.87804 8.16675 5.83337 9.21142 5.83337 10.5001C5.83337 11.7887 6.87804 12.8334 8.1667 12.8334Z" fill="#6D4C41"/>
<path d="M19.8333 12.8334C21.122 12.8334 22.1667 11.7887 22.1667 10.5001C22.1667 9.21142 21.122 8.16675 19.8333 8.16675C18.5447 8.16675 17.5 9.21142 17.5 10.5001C17.5 11.7887 18.5447 12.8334 19.8333 12.8334Z" fill="#6D4C41"/>
<path d="M9.04176 22.3615C8.67542 22.3615 8.33359 22.1294 8.21226 21.763C8.05942 21.3045 8.30792 20.8087 8.76526 20.6559L18.6819 17.3507C19.1416 17.1967 19.6363 17.4464 19.7891 17.9037C19.9419 18.3622 19.6934 18.858 19.2361 19.0109L9.31942 22.316C9.22726 22.3464 9.13392 22.3615 9.04176 22.3615Z" fill="#6D4C41"/>
</svg>
