<svg width="28" height="28" viewBox="0 0 28 28" fill="none" xmlns="http://www.w3.org/2000/svg">
<path d="M23.5258 0.25342C23.268 0.0212529 22.8982 -0.0359138 22.5843 0.105253C22.2682 0.24642 22.0652 0.559086 22.0652 0.904419C22.0652 2.36975 21.4072 3.72425 20.2592 4.62259C19.8788 4.92009 19.8123 5.47075 20.1098 5.85109C20.4073 6.23142 20.9592 6.29792 21.3383 6.00042C21.3663 5.97825 21.3897 5.95142 21.4177 5.92925L23.17 7.68159C23.1408 7.72592 23.1187 7.77375 23.0883 7.81692C22.8118 8.21359 22.9087 8.75842 23.3053 9.03492C23.4582 9.14109 23.632 9.19242 23.8058 9.19242C24.0823 9.19242 24.3542 9.06175 24.5245 8.81792C26.3982 6.13225 25.9688 2.45025 23.5258 0.25342Z" fill="#E53935"/>
<path d="M5.90102 0.902878C5.90102 0.557544 5.69802 0.244878 5.38185 0.103711C5.06802 -0.0362891 4.69818 0.0208776 4.44035 0.251878C1.99618 2.44871 1.56802 6.13071 3.44285 8.81754C3.61318 9.06138 3.88502 9.19204 4.16035 9.19204C4.33302 9.19204 4.50802 9.14071 4.66085 9.03454C5.05752 8.75804 5.15435 8.21321 4.87785 7.81654C4.84752 7.77221 4.82535 7.72554 4.79618 7.68121L6.54851 5.92888C6.57652 5.95104 6.59868 5.97788 6.62785 6.00004C7.00702 6.29638 7.55885 6.22988 7.85635 5.84954C8.15385 5.46921 8.08735 4.91854 7.70702 4.62104C6.55902 3.72271 5.90102 2.36821 5.90102 0.902878Z" fill="#E53935"/>
<path d="M14 27.9721C21.0876 27.9721 26.8333 22.2264 26.8333 15.1388C26.8333 8.0511 21.0876 2.30542 14 2.30542C6.91231 2.30542 1.16663 8.0511 1.16663 15.1388C1.16663 22.2264 6.91231 27.9721 14 27.9721Z" fill="#EF5350"/>
<path d="M18.6666 13.9999C17.3798 13.9999 16.3333 12.9534 16.3333 11.6666C16.3333 11.0436 16.576 10.4579 17.017 10.0169C17.458 9.57592 18.0436 9.33325 18.6666 9.33325C19.9535 9.33325 21 10.3798 21 11.6666C21 12.9534 19.9535 13.9999 18.6666 13.9999Z" fill="#4E342E"/>
<path d="M17.7205 11.4309C17.4965 11.4309 17.2725 11.3457 17.1022 11.1742C16.7604 10.8324 16.7604 10.2782 17.1022 9.93639L19.4355 7.60305C19.7774 7.26122 20.3315 7.26122 20.6734 7.60305C21.0152 7.94489 21.0152 8.49905 20.6734 8.84089L18.34 11.1742C18.1685 11.3457 17.9445 11.4309 17.7205 11.4309Z" fill="#4E342E"/>
<path d="M9.33333 13.9999C8.0465 13.9999 7 12.9534 7 11.6666C7 10.3798 8.0465 9.33325 9.33333 9.33325C9.95633 9.33325 10.542 9.57592 10.983 10.0169C11.424 10.4579 11.6667 11.0436 11.6667 11.6666C11.6667 12.9534 10.6202 13.9999 9.33333 13.9999Z" fill="#4E342E"/>
<path d="M10.2808 11.4309C10.0568 11.4309 9.8328 11.3457 9.66246 11.1742L7.32913 8.84089C6.9873 8.49905 6.9873 7.94489 7.32913 7.60305C7.67096 7.26122 8.22513 7.26122 8.56696 7.60305L10.9003 9.93639C11.2421 10.2782 11.2421 10.8324 10.9003 11.1742C10.7276 11.3457 10.5036 11.4309 10.2808 11.4309Z" fill="#4E342E"/>
<path d="M14 22.1479C11.6725 22.1479 9.48499 21.2414 7.83999 19.5953C7.49816 19.2534 7.49816 18.6993 7.83999 18.3574C8.18183 18.0156 8.73599 18.0156 9.07783 18.3574C10.3927 19.6723 12.1415 20.3968 14.0012 20.3968C15.8608 20.3968 17.6097 19.6723 18.9245 18.3574C19.2663 18.0156 19.8205 18.0156 20.1623 18.3574C20.5042 18.6993 20.5042 19.2534 20.1623 19.5953C18.515 21.2414 16.3275 22.1479 14 22.1479Z" fill="#4E342E"/>
</svg>
