<svg width="28" height="28" viewBox="0 0 28 28" fill="none" xmlns="http://www.w3.org/2000/svg">
<g clip-path="url(#clip0)">
<path d="M14 28C21.732 28 28 21.732 28 14C28 6.26801 21.732 0 14 0C6.26801 0 0 6.26801 0 14C0 21.732 6.26801 28 14 28Z" fill="#FFD54F"/>
<path d="M25.1475 1.12476C24.472 1.12476 23.835 1.35226 23.3334 1.74426C22.8317 1.35226 22.1947 1.12476 21.5192 1.12476C19.9465 1.12476 18.6667 2.34742 18.6667 3.85009C18.6667 6.19159 22.1375 8.73259 22.8317 9.21792C22.9834 9.32292 23.1584 9.37542 23.3334 9.37542C23.5084 9.37542 23.6834 9.32292 23.835 9.21792C24.5292 8.73142 28 6.19159 28 3.85009C28 2.34742 26.7202 1.12476 25.1475 1.12476Z" fill="#E53935"/>
<path d="M6.48083 19.7913C5.80533 19.7913 5.16833 20.0188 4.66667 20.4108C4.165 20.0188 3.528 19.7913 2.8525 19.7913C1.27983 19.7913 0 21.0139 0 22.5166C0 24.8581 3.47083 27.3991 4.165 27.8844C4.31667 27.9894 4.49167 28.0419 4.66667 28.0419C4.84167 28.0419 5.01667 27.9894 5.16833 27.8844C5.8625 27.3979 9.33333 24.8581 9.33333 22.5166C9.33333 21.0139 8.0535 19.7913 6.48083 19.7913Z" fill="#E53935"/>
<path d="M10.7916 13.1249C10.3086 13.1249 9.91664 12.7329 9.91664 12.2499C9.91664 11.6071 9.39398 11.0833 8.74998 11.0833C8.10598 11.0833 7.58331 11.6071 7.58331 12.2499C7.58331 12.7329 7.19131 13.1249 6.70831 13.1249C6.22531 13.1249 5.83331 12.7329 5.83331 12.2499C5.83331 10.6423 7.14115 9.33325 8.74998 9.33325C10.3588 9.33325 11.6666 10.6423 11.6666 12.2499C11.6666 12.7329 11.2746 13.1249 10.7916 13.1249Z" fill="#6D4C41"/>
<path d="M21.2916 13.1249C20.8086 13.1249 20.4166 12.7329 20.4166 12.2499C20.4166 11.6071 19.894 11.0833 19.25 11.0833C18.606 11.0833 18.0833 11.6071 18.0833 12.2499C18.0833 12.7329 17.6913 13.1249 17.2083 13.1249C16.7253 13.1249 16.3333 12.7329 16.3333 12.2499C16.3333 10.6423 17.6411 9.33325 19.25 9.33325C20.8588 9.33325 22.1666 10.6423 22.1666 12.2499C22.1666 12.7329 21.7746 13.1249 21.2916 13.1249Z" fill="#6D4C41"/>
<path d="M14 20.9998C11.452 20.9998 9.05801 20.0081 7.25668 18.2056C6.91485 17.8638 6.91485 17.3096 7.25668 16.9678C7.59851 16.626 8.15268 16.626 8.49451 16.9678C9.96451 18.4401 11.9198 19.2498 14 19.2498C16.0802 19.2498 18.0355 18.4401 19.5067 16.969C19.8485 16.6271 20.4027 16.6271 20.7445 16.969C21.0863 17.3108 21.0863 17.865 20.7445 18.2068C18.942 20.0081 16.548 20.9998 14 20.9998Z" fill="#6D4C41"/>
</g>
<defs>
<clipPath id="clip0">
<rect width="28" height="28" fill="white"/>
</clipPath>
</defs>
</svg>
