<svg width="28" height="28" viewBox="0 0 28 28" fill="none" xmlns="http://www.w3.org/2000/svg">
<path d="M14 28C21.732 28 28 21.732 28 14C28 6.26801 21.732 0 14 0C6.26801 0 0 6.26801 0 14C0 21.732 6.26801 28 14 28Z" fill="#FFD54F"/>
<path d="M8.1667 12.8334C9.45537 12.8334 10.5 11.7887 10.5 10.5001C10.5 9.21142 9.45537 8.16675 8.1667 8.16675C6.87804 8.16675 5.83337 9.21142 5.83337 10.5001C5.83337 11.7887 6.87804 12.8334 8.1667 12.8334Z" fill="#6D4C41"/>
<path d="M19.8333 12.8334C21.122 12.8334 22.1667 11.7887 22.1667 10.5001C22.1667 9.21142 21.122 8.16675 19.8333 8.16675C18.5447 8.16675 17.5 9.21142 17.5 10.5001C17.5 11.7887 18.5447 12.8334 19.8333 12.8334Z" fill="#6D4C41"/>
<path d="M19.8334 22.7921C19.6094 22.7921 19.3854 22.7069 19.215 22.5354C17.822 21.1424 15.9705 20.3748 14 20.3748C12.0295 20.3748 10.178 21.1424 8.78504 22.5354C8.44321 22.8773 7.88904 22.8773 7.54721 22.5354C7.20537 22.1936 7.20537 21.6394 7.54721 21.2976C9.27037 19.5733 11.5617 18.6248 13.9989 18.6248C16.436 18.6248 18.7274 19.5733 20.4505 21.2976C20.7924 21.6394 20.7924 22.1936 20.4505 22.5354C20.2814 22.7058 20.0574 22.7921 19.8334 22.7921Z" fill="#6D4C41"/>
</svg>
