<svg width="28" height="28" viewBox="0 0 28 28" fill="none" xmlns="http://www.w3.org/2000/svg">
<path d="M14 28C21.732 28 28 21.732 28 14C28 6.26801 21.732 0 14 0C6.26801 0 0 6.26801 0 14C0 21.732 6.26801 28 14 28Z" fill="#FFD54F"/>
<path d="M8.16664 12.8334C9.45531 12.8334 10.5 11.7887 10.5 10.5001C10.5 9.21142 9.45531 8.16675 8.16664 8.16675C6.87798 8.16675 5.83331 9.21142 5.83331 10.5001C5.83331 11.7887 6.87798 12.8334 8.16664 12.8334Z" fill="#6D4C41"/>
<path d="M19.8333 12.8334C21.122 12.8334 22.1667 11.7887 22.1667 10.5001C22.1667 9.21142 21.122 8.16675 19.8333 8.16675C18.5447 8.16675 17.5 9.21142 17.5 10.5001C17.5 11.7887 18.5447 12.8334 19.8333 12.8334Z" fill="#6D4C41"/>
<path d="M14 24.4416C15.933 24.4416 17.5 22.6395 17.5 20.4166C17.5 18.1937 15.933 16.3916 14 16.3916C12.067 16.3916 10.5 18.1937 10.5 20.4166C10.5 22.6395 12.067 24.4416 14 24.4416Z" fill="#E53935"/>
</svg>
