<svg width="28" height="28" viewBox="0 0 28 28" fill="none" xmlns="http://www.w3.org/2000/svg">
<path d="M14 28C21.732 28 28 21.732 28 14C28 6.26801 21.732 0 14 0C6.26801 0 0 6.26801 0 14C0 21.732 6.26801 28 14 28Z" fill="#FFD54F"/>
<path d="M14 23.3753C11.5629 23.3753 9.27153 22.4268 7.54837 20.7025C7.20653 20.3606 7.20653 19.8065 7.54837 19.4646C7.8902 19.1228 8.44437 19.1228 8.7862 19.4646C10.1792 20.8576 12.0307 21.6253 14.0012 21.6253C15.9717 21.6253 17.8232 20.8576 19.2162 19.4646C19.558 19.1228 20.1122 19.1228 20.454 19.4646C20.7959 19.8065 20.7959 20.3606 20.454 20.7025C18.7285 22.4256 16.4372 23.3753 14 23.3753Z" fill="#6D4C41"/>
<path d="M10.7917 11.6667H5.54169C5.05869 11.6667 4.66669 11.2747 4.66669 10.7917C4.66669 10.3087 5.05869 9.91675 5.54169 9.91675H10.7917C11.2747 9.91675 11.6667 10.3087 11.6667 10.7917C11.6667 11.2747 11.2747 11.6667 10.7917 11.6667Z" fill="#6D4C41"/>
<path d="M19.8333 12.8334C21.122 12.8334 22.1667 11.7887 22.1667 10.5001C22.1667 9.21142 21.122 8.16675 19.8333 8.16675C18.5447 8.16675 17.5 9.21142 17.5 10.5001C17.5 11.7887 18.5447 12.8334 19.8333 12.8334Z" fill="#6D4C41"/>
</svg>
